<?xml version="1.0" standalone="no"?>
<!DOCTYPE svg PUBLIC "-//W3C//DTD SVG 20010904//EN"
 "http://www.w3.org/TR/2001/REC-SVG-20010904/DTD/svg10.dtd">
<svg version="1.0" xmlns="http://www.w3.org/2000/svg"
 width="200.000000pt" height="200.000000pt" viewBox="0 0 200.000000 200.000000"
 preserveAspectRatio="xMidYMid meet">

<g transform="translate(0.000000,200.000000) scale(0.100000,-0.100000)"
fill="#ffffff" stroke="none">
<path d="M835 1926 c-193 -37 -343 -115 -484 -250 -129 -125 -215 -270 -263
-446 -32 -122 -32 -337 1 -460 47 -175 133 -322 261 -444 126 -120 254 -192
420 -237 70 -19 110 -23 230 -23 172 0 262 20 405 89 252 121 432 341 506 615
33 122 33 338 0 460 -45 166 -117 294 -237 420 -123 129 -271 215 -444 260
-107 28 -294 36 -395 16z m295 -76 c520 -82 849 -612 688 -1110 -145 -452
-630 -703 -1078 -558 -452 145 -703 630 -558 1078 129 402 536 655 948 590z"/>
<path transform="translate(90, 0)" d="M830 1368 c-172 -87 -73 -407 110 -358 106 28 162 181 108 290 -26
50 -89 90 -143 90 -17 0 -51 -10 -75 -22z"/>
<path transform="translate(90, 0)" d="M820 910 c-116 -15 -195 -65 -225 -144 -24 -64 -17 -106 23 -133 154
-103 416 -102 573 2 34 22 39 30 39 63 -1 152 -172 240 -410 212z"/>
</g>
</svg>
