<svg xmlns="http://www.w3.org/2000/svg" width="108" height="70" viewBox="0 0 108 70">
    <g fill="none" fill-rule="evenodd" opacity=".9">
        <path fill="#FFF" d="M19.908 63.226l.015-.003c.005.017.008.035.014.053a1.552 1.552 0 0 0-.029-.05m59.385-28.985a3.72 3.72 0 0 0-.593.7 5.623 5.623 0 0 0-.714 1.572c-.096.367-.18.833-.263 1.466l-.148 1.145c-.57-.625-1.212-1.2-1.927-1.724-.125-.091-.254-.17-.38-.258.184-.98.163-1.942.113-2.573l-.014-.193a4.667 4.667 0 0 0-.436-1.897 3.918 3.918 0 0 0-.638-1.041c1.317.966 3 2.04 5 2.803M66.686 47.225c.381-.393.679-.474.895-.5.06-.007.117-.01.174-.01.173 0 .45.027.852.268.17.102.246.455.28.733.07.593-.075.734-.15.806-.234.229-.584.51-.91.55a.911.911 0 0 1-.1.006c-.237 0-.527-.1-.866-.302-.07-.04-.232-.136-.302-.716-.076-.626.072-.779.127-.835m-11.008-18.49a.878.878 0 0 1 .11-.008c.111 0 .29.02.541.16.02.027.074.155.105.411.03.244.005.368-.027.414-.234.227-.451.368-.642.388-.04 0-.096-.019-.147-.031.018-.426.014-.867-.012-1.32.024-.005.05-.012.072-.015m-.307 12.412c.144.006.288.021.431.021.218 0 .437-.008.656-.02-.086.136-.167.274-.247.413a9.813 9.813 0 0 0-.84-.414m-11.89-10.833c-.236.23-.585.511-.91.55a.723.723 0 0 1-.101.007c-.237 0-.527-.1-.866-.302-.07-.04-.232-.137-.303-.72-.075-.622.074-.775.128-.83.381-.394.679-.475.895-.501.059-.008.116-.011.174-.011.173 0 .45.027.853.269.169.101.245.455.278.733.072.592-.074.734-.148.805M29.706 40.727l.374.271c-.104.048-.193.102-.291.152-.024-.132-.05-.27-.083-.423m21.844-.37c-.034-.001-.067-.005-.1-.005-.319 0-.642.021-.966.053-.036-.066-.07-.134-.11-.198.103-.075.205-.152.304-.23.286.137.575.266.872.38m21.557-9.833a3.719 3.719 0 0 0-.92-.356 5.996 5.996 0 0 0-.304-.066c-.04-.008-.08-.023-.12-.03.051-.246.1-.49.147-.735.41.496.838.888 1.197 1.187m6.971-11.997c-.182-.196-.304-.374-.35-.546-.054-.23.09-.809.334-.996.143-.11.271-.23.385-.363.425.28.914.434 1.414.434.08 0 .161-.01.242-.018l.396.94c.087.208.2.4.334.573a15.94 15.94 0 0 0-2.755-.024"/>
        <path fill="#FFF" d="M107.031 47.164l-1.266 1.629a3.328 3.328 0 0 1-2.64 1.286 3.369 3.369 0 0 1-2.062-.71l-.553-.436-.434.554a3.345 3.345 0 0 1-4.702.57l-1.623-1.27a4.722 4.722 0 0 1-.33-.306c.015.058.035.11.056.172.01.036.015.072.02.108.021.073.037.15.052.223.02.089.036.182.047.27.01.062.015.13.026.197a5.1 5.1 0 0 1 .02.28c0 .042.005.078.005.12 0 .067 0 .129-.005.196v.063c-.01.15-.02.3-.046.45.987.41 1.715 1.022 2.155 1.593.093.114.175.233.263.347.228.285.445.586.63.923.052.088.088.176.135.264.077.15.155.301.222.452.041.088.078.181.114.27.062.16.124.32.17.481.207.628.331 1.255.347 1.877a5.75 5.75 0 0 1-.574 2.686 3.696 3.696 0 0 1-.078.146c-.02.046-.046.093-.072.14-.062.119-.13.233-.201.337 0 0 0 .005-.006.005v.005c-.005.005-.01.01-.01.015-.005.01-.01.016-.015.021 0 0-.006.005-.006.01-.01.011-.015.021-.02.027-.719 1.078-1.664 1.923-2.64 2.577-.388.274-.802.539-1.246.788-1.039.59-2.16.995-3.349 1.208-.02.005-.051.015-.072.015a7.423 7.423 0 0 1-1.85.254c-.48 0-.904-.067-1.287-.165a3.7 3.7 0 0 1-.749-.234c-.238.031-.49.057-.765.057-.827 0-1.643-.166-1.963-.238a24.2 24.2 0 0 1-1.799-.394c-2.511-.67-4.134-1.903-4.842-3.671a8.268 8.268 0 0 1-.496-1.914c-.155.114-.31.228-.47.337-1.793 1.182-3.752 1.908-5.818 2.162-.507.063-1.024.094-1.53.094-1.576 0-3.168-.3-4.723-.892-1.87-.71-3.555-1.862-5.007-3.412a8.85 8.85 0 0 1-1.308 1.058c-.594.389-1.214.71-1.86.964.088.192.165.394.227.607.083.285.135.576.16.871.006.01.006.016.006.026.01.088.015.182.02.27.016.321-.005.637-.062.943l-.03.171c0 .01-.006.021-.006.032a5.322 5.322 0 0 1-.672 1.674c-.227.4-.45.71-.589.897-1.09 1.504-2.16 2.339-3.364 2.624a3.871 3.871 0 0 1-.852.093c-1.111 0-2.248-.45-3.576-1.425l-3.442-2.474c.104.477.166.84.191 1.141.057.56-.005 1.161-.186 1.83-.413 1.639-1.84 2.77-4.232 3.33a8.106 8.106 0 0 1-1.87.238c-2.269 0-3.38-1.219-3.85-1.991-.377-.581-.667-1.349-.915-2.406l-.212-.897c-.547.337-1.116.637-1.705.897-2.475 1.13-4.392 1.203-5.596 1.25l-.228.01h-.036c-.005 0-.015 0-.02.005h-.135c-1.726 0-2.956-1-3.617-2.313.114.483.124.99.015 1.494a3.384 3.384 0 0 1-3.286 2.66c-.238 0-.475-.026-.708-.078-.005 0-.01-.005-.01-.005-.057.005-.109.01-.16.01-2.636 0-4.842-2.93-6.263-5.476-7.121-.73-7.767-3.956-7.778-5.03-.01-1.285.63-3.012 3.618-4.173a3.37 3.37 0 0 1 .894-.902c-.145-2.51.48-4.574 2.403-5.367.418-.171.868-.26 1.328-.26 1.4 0 2.681.835 3.787 1.997.822-2.712 3.163-4.76 4.785-5.906-.025-.104-.051-.202-.077-.316l-2.718-11.957a7.42 7.42 0 0 1-5.137 2.063c-1.88 0-3.705-.72-5.13-2.043a7.468 7.468 0 0 1-1.515-8.856 2.533 2.533 0 0 1-1.018-2.22l.015-.212a1.813 1.813 0 0 0-.444-.067h-.088c-.294 0-.465-.016-.465-.016a2.616 2.616 0 0 1-2.33-2.706 2.573 2.573 0 0 1 2.537-2.474s.29.005.382.005c.987-.046 1.08-.518 1.142-.834 0-.016.005-.031.005-.042a2.59 2.59 0 0 1 2.533-2.08c.165 0 .33.016.5.053a2.59 2.59 0 0 1 2.042 3.023.729.729 0 0 0 0 .212c.046.01.114.021.196.031h.005c.295 0 .47.016.47.016a2.596 2.596 0 0 1 1.913 1.161l2.682-4.858c.005 0 .005-.005.005-.005.005-.01.01-.021.015-.026.078-.135.166-.26.264-.373.015-.021.03-.042.046-.058.527-.606 1.297-.959 2.155-.959.062 0 .13.005.196.01a2.938 2.938 0 0 1 1.783-1.042c.01-.01.016-.026.026-.036a3.21 3.21 0 0 1 2.553-1.244c1.286 0 2.408.767 2.925 1.887a3.534 3.534 0 0 1 2.113 2.82 3.533 3.533 0 0 1-3.493 3.952c-.63 0-1.22-.166-1.736-.462l-1.427 2.515c1.328.094 3.385.918 5.178 4.532.915-1.7 1.716-3.204 2.398-4.495.34-.654 1.385-2.65 3.39-3.112a4.12 4.12 0 0 1 .914-.098c.76 0 1.582.197 2.491.596l.103.042c.031.015.057.03.083.041a11.65 11.65 0 0 1 .935.477c.021.016.042.026.068.042.49.285.91.596 1.26.933.006.01.016.016.026.026.067.067.145.135.207.207.134.14.264.29.388.451.599-.259 1.22-.461 1.86-.632.093-.026.18-.062.279-.078.02-.005.041-.005.062-.01.47-.114.95-.208 1.447-.265.548-.067 1.1-.098 1.638-.098 1.798 0 3.534.373 5.188 1.115.946.399 1.772.886 2.486 1.4a11.498 11.498 0 0 1 4.144-1.317c.49-.058.982-.089 1.462-.089.667 0 1.323.063 1.964.177.062.005.124.015.18.026.058.015.104.03.156.041.91.187 1.793.487 2.65.902.218.099.424.203.626.306l.062-3.972a12.7 12.7 0 0 1 .093-1.488 5.74 5.74 0 0 1 .579-1.737c.796-1.472 2.387-2.224 4.733-2.224h.197c.377.01.723.041 1.059.083.072.005.15.005.227.015.243.042.579.114.946.228.062.021.129.042.191.068.13.046.269.098.403.16.078.037.155.068.227.11.755.378 1.494.985 1.84 1.965.016.03.026.062.036.093.01.026.02.052.026.078.016.046.031.119.052.218l.015.051c.005.037.026.15.052.332.057.337.124.804.191 1.374.17 1.437.372 3.677.357 6.373a8.337 8.337 0 0 1 1.726-.928l.434-.171a4.569 4.569 0 0 1-.13-.426c-.583-2.208.254-4.796 1.99-6.268a2.105 2.105 0 0 1-.047-.25l-1.023-.207a2.576 2.576 0 0 1-1.912-1.633c-.31-.84-.17-1.784.378-2.494l1.84-2.385a2.592 2.592 0 0 1 2.34-.99l1.462.17c.894-1.296 2.042-2.566 3.483-3.458.135-.083.28-.15.424-.208C85.726.156 88.025 0 88.92 0c.135 0 .207.005.207.005 1.1.052 2.067.804 2.377 1.862.8 2.748.077 5.05-.155 5.662a2.415 2.415 0 0 1-.098.54c-.093.305-.729 2.177-2.558 4.287l.517 1.208a2.595 2.595 0 0 1-.378 2.67l-1.958 2.386c-.217.26-.48.472-.77.627.858.296 1.68.664 2.45 1.126 1.839 1.104 2.624 2.934 2.05 4.786-.48 1.565-1.963 2.846-3.6 3.121-1.52.254-2.719-.347-3.23-.607-2-.995-3.685-2.312-5.282-3.65-.703.171-1.416.4-2.124.684-.604.25-.718.384-.739.405a.621.621 0 0 0-.04.212c-.006.29.077.649 1.177 1.494 2.186 1.685 4.046 2.65 5.907 3.043a2.58 2.58 0 0 1 3.83.923 2.866 2.866 0 0 1-.466 3.236c.398.275.76.612 1.064.996l.078.108c.046.057.093.115.14.177.004.005.004.015.015.026.082.119.155.243.227.373.042.078.078.16.119.239l.036.082a5.03 5.03 0 0 1 .33 3.288 91.296 91.296 0 0 0-1.343 6.663c.166-.047.336-.088.502-.125.02-.005.036-.015.056-.026a5.224 5.224 0 0 1 2.641-.186c.047.005.088.015.13.02.056.01.108.021.16.037.92.197 1.777.664 2.413 1.374a3.36 3.36 0 0 1 .578-2.997l.43-.555-.548-.435a3.332 3.332 0 0 1-1.261-2.24 3.337 3.337 0 0 1 .687-2.479l1.271-1.628a3.31 3.31 0 0 1 2.636-1.286c.744 0 1.477.254 2.067.715l.552.43.43-.549a3.342 3.342 0 0 1 4.702-.576l1.622 1.276a3.352 3.352 0 0 1 1.261 2.24 3.37 3.37 0 0 1-.692 2.479l-.43.555.554.43a3.357 3.357 0 0 1 1.255 2.24 3.337 3.337 0 0 1-.687 2.478"/>
        <path fill="#EDBD4F" d="M49.958 51.937c.584.346 1.152.485 1.703.418.55-.067 1.077-.344 1.577-.83s.7-1.14.601-1.96c-.1-.822-.433-1.402-.999-1.74-.566-.34-1.15-.473-1.75-.4-.602.074-1.136.352-1.603.833-.466.483-.65 1.13-.552 1.943.098.813.439 1.39 1.023 1.736m-3.951-6.391c1.244-1.478 2.768-2.327 4.572-2.547 1.803-.22 3.476.235 5.02 1.365 1.542 1.13 2.436 2.7 2.68 4.71.168 1.39-.042 2.67-.629 3.839-.587 1.168-1.362 2.07-2.328 2.706a7.144 7.144 0 0 1-3.1 1.156c-1.102.135-2.204-.008-3.305-.427-1.101-.417-2.07-1.115-2.91-2.093-.838-.977-1.338-2.135-1.5-3.476-.245-2.011.256-3.755 1.5-5.233"/>
        <path stroke="#5E5F5F" stroke-width=".5" d="M16.671 12.259l-4.294 7.775c-.19.334-.551.557-.933.52-2.221-.216-4.466 1.093-5.178 3.558a4.87 4.87 0 0 0 1.34 4.852 4.884 4.884 0 0 0 7.622-1.125c.977-1.72.787-3.772-.298-5.279-.237-.329-.226-.778-.026-1.13l4.361-7.678"/>
        <path fill="#DE2327" d="M19.76 11.433a.384.384 0 0 1-.335.429.384.384 0 0 1-.092-.764.383.383 0 0 1 .426.335"/>
        <path fill="#EC9B21" d="M22.1 10.438a.655.655 0 0 1-1.3.159.655.655 0 0 1 1.3-.159"/>
        <path fill="#46BFB7" d="M23.924 12.288a.934.934 0 0 1-1.854.226.935.935 0 0 1 1.854-.226"/>
        <path fill="#0CAFC4" d="M10.89 25.537c-2.288.42-3.618-1.186-3.618-1.186s-.598 4.534 3.356 4.88c3.654.321 4.38-4.216 4.38-4.216s-.6-.126-4.119.522"/>
        <path fill="#5E5F5F" d="M79.547 11.484l3.242 2.503s-.373.305-.927.477l-2.637-2.056s.115-.514.322-.924M85.108 3.734l3.804 2.935s.763-1.833.11-4.075c0 0-2.165-.09-3.914 1.14M78.005 7.652l2.529.292s-1.035 1.746-1.251 2.728l-3.12-.632 1.842-2.388zM83.631 14.009s1.502-.866 2.249-1.656l.956 2.234-1.957 2.381-1.248-2.96zM85.7 9.382c-.837.973-2.014 1.332-2.628.8-.615-.532-.435-1.753.401-2.726.837-.974 2.014-1.332 2.629-.8.614.532.434 1.753-.402 2.726zm-1.1-5.386c-3.303 2.04-4.847 7.079-4.847 7.079l3.348 2.562c4.545-2.64 5.681-6.333 5.681-6.333L84.6 3.996z"/>
        <path stroke="#5E5F5F" stroke-width=".5" d="M21.79 57.555c.014 1.483-3.806 2.72-8.53 2.762-4.726.043-8.567-1.124-8.58-2.607-.014-1.483 3.806-2.719 8.53-2.762 4.726-.043 8.567 1.125 8.58 2.607z"/>
        <path stroke="#5E5F5F" stroke-width=".5" d="M16.478 65.577c-1.367.562-3.928-2.539-5.72-6.926-1.79-4.388-2.134-8.4-.767-8.962 1.368-.563 3.928 2.538 5.72 6.926 1.79 4.388 2.134 8.4.767 8.962z"/>
        <path fill="#80CACB" d="M17.774 65.1a.777.777 0 1 1-1.52-.33.778.778 0 1 1 1.52.33"/>
        <path fill="#DB4527" d="M20.247 59.876a1.048 1.048 0 1 1-2.048-.444 1.047 1.047 0 1 1 2.048.444"/>
        <path fill="#EDBD4F" d="M9.26 55.587a.778.778 0 1 1-1.52-.33.778.778 0 1 1 1.52.33"/>
        <path fill="#D33F29" d="M65.55 51.011c.888.527 1.752.737 2.589.635.837-.102 1.637-.523 2.398-1.263.76-.738 1.066-1.731.914-2.98-.151-1.249-.658-2.13-1.519-2.646-.861-.515-1.748-.717-2.662-.605-.914.11-1.726.533-2.436 1.265-.71.734-.99 1.718-.84 2.954.15 1.236.668 2.116 1.556 2.64m-6.007-9.717c1.892-2.248 4.208-3.539 6.95-3.873 2.742-.335 5.286.357 7.633 2.075 2.346 1.718 3.705 4.105 4.075 7.16.256 2.116-.062 4.062-.955 5.838-.893 1.777-2.072 3.149-3.54 4.115-1.467.967-3.038 1.554-4.714 1.759-1.676.204-3.351-.013-5.025-.65-1.675-.634-3.149-1.695-4.424-3.182-1.275-1.486-2.036-3.247-2.283-5.286-.37-3.057.39-5.709 2.283-7.956"/>
        <path fill="#C93728" d="M65.11 37.68s9.848.082 11.056 8.404c0 0 1.972 8.896-7.606 12.253 0 0 5.434-.007 8.449-5.463 0 0 3-5.154-.302-10.564 0 0-3.397-6.198-11.598-4.63"/>
        <path fill="#80CACB" d="M53.874 32.12c.77.457 1.52.64 2.248.55.728-.088 1.423-.454 2.083-1.096.661-.641.926-1.504.794-2.588-.131-1.086-.571-1.851-1.319-2.299-.748-.448-1.519-.623-2.312-.526-.795.097-1.5.463-2.116 1.099-.617.637-.86 1.493-.73 2.566.13 1.073.58 1.838 1.352 2.294m-5.22-8.442c1.644-1.952 3.657-3.074 6.039-3.364 2.381-.29 4.591.311 6.63 1.802 2.038 1.493 3.218 3.566 3.54 6.22.222 1.839-.054 3.528-.83 5.072-.776 1.543-1.8 2.734-3.075 3.574-1.275.84-2.64 1.35-4.095 1.528-1.456.177-2.91-.011-4.365-.564-1.455-.552-2.736-1.473-3.843-2.765-1.108-1.29-1.768-2.82-1.983-4.591-.322-2.656.34-4.96 1.983-6.912"/>
        <path fill="#46BFB7" d="M57.425 20.385s7.812 3.274 5.636 10.72c0 0-1.79 7.777-10.622 6.802 0 0 4.297 2.053 8.733-1.117 0 0 4.311-2.936 3.737-8.464 0 0-.308-6.33-7.484-7.94"/>
        <path fill="#EBAF34" d="M52.834 43.04s5.748 2.424 4.09 8.074c0 0-1.376 5.9-7.894 5.222 0 0 3.16 1.524 6.459-.905 0 0 3.205-2.253 2.819-6.432 0 0-.184-4.79-5.474-5.96"/>
        <path fill="#EDBD4F" d="M70.704 32.633c.45-.066.76.028.915.065.155.035.343.133.562.292.44.297.65 1.092.629 2.384-.022 1.405-.258 2.26-.707 2.565-.584.392-1.962.436-4.135.134-1.707-.25-2.808-.835-3.304-1.757-.606-1.102-.89-2.846-.852-5.23l.251-15.915a9.67 9.67 0 0 1 .069-1.153c.037-.256.136-.55.297-.882.32-.598 1.192-.884 2.613-.861 1.355.021 2.194.335 2.519.943 0 0 1.66 9.079-.753 18.107 0 0-.765 1.702 1.896 1.308"/>
        <path fill="#EBAF34" d="M70.66 33.998c.947-.13 1.096 1.403 1.096 1.403.138 2.703-1.647 2.843-1.647 2.843.56.08 1.56-.115 1.56-.115 1.477-.144 1.118-3.575 1.118-3.575.042-1.557-1.262-2.105-2.083-1.92-.822.183-1.157.094-1.157.094-1.318-.312-.706-1.664-.706-1.664 2.2-8.224.91-17.202.72-17.847-.19-.645-1.608-.877-1.608-.877 2.127 6.331-.347 18.621-.347 18.621s-.96 3.585 3.053 3.037"/>
        <path fill="#80CACB" d="M48.358 42.259c-.29 2.22-2.895 3.343-6.939 9.81-.886 1.418 2.748 2.54 3.386 2.849 3.547 1.711 4.992 2.305 6.54 3.432.901.635 1.21 1.557 1.34 2.11.129.554-.152 1.306-.842 2.259-.691.952-1.312 1.493-1.864 1.622-.552.13-1.323-.17-2.315-.898l-7.068-5.077c-.687-.492-1.615.13-1.423.955l.928 3.975c.121.522.194.905.217 1.152.023.246-.014.552-.11.918-.167.658-.942 1.149-2.326 1.474-1.515.356-2.498.152-2.95-.612-.21-.317-.405-.854-.582-1.614L30.126 46.51a9.783 9.783 0 0 1-.213-1.135c-.025-.256.01-.568.108-.935.165-.658.94-1.149 2.325-1.474 0 0 3.531-1.364 4.433 6.092.1.838 1.3.96 1.7.217a560.327 560.327 0 0 0 4.08-7.713c.55-1.066 1.106-1.667 1.668-1.8.562-.131 1.364.076 2.404.62 0 0 1.851.928 1.727 1.876"/>
        <path fill="#46BFB7" d="M52.193 62.195s.456-2.155-3.815-3.914c-4.182-1.722-7.673-3.888-7.673-3.888s-2.2-1.16-.113-3.407c2.088-2.246 8.664-9.475 6.046-10.628 0 0 2.701 1.118 1.376 2.858 0 0-.44 1.009-2.854 3.856l-3.336 4.422s-1.082 1.194.007 1.91c1.07.703 5.904 2.95 7.289 3.584 0 0 5.23 2.13 3.073 5.207"/>
        <path fill="#80CACB" d="M84.906 56.42c.452-.051.752.115.902.17.15.052.325.17.525.354.403.345.521 1.16.355 2.44-.18 1.393-.512 2.215-.993 2.468-.625.323-1.998.21-4.123-.338-1.668-.443-2.696-1.15-3.085-2.123-.476-1.164-.56-2.928-.253-5.293l2.052-15.783c.066-.509.132-.888.198-1.138.066-.25.197-.531.395-.843.386-.556 1.284-.742 2.694-.557l.04.005c1.37.186 2.247 1.567 1.922 2.916-.72 2.978-2.104 9.47-2.364 16.207 0 0-.156 1.731 1.735 1.516"/>
        <path fill="#46BFB7" d="M82.653 35.71s2.838-.625 1.258 5.46c0 0-4.092 16.083-.756 16.222 3.336.14 2.58 2.923 2.58 2.923s-.132 2.023-2.505 1.563c0 0 1.532.372 2.222.066s1.026-1.226 1.13-1.893c.106-.667.258-1.927.099-2.523 0 0-.264-1.07-1.95-1.143-1.687-.073-1.553-.938-1.561-1.48-.008-.542.166-6.36 1.84-13.969l.404-1.86s.543-1.786-.583-2.681c0 0-.785-.848-2.178-.686"/>
        <path fill="#D33F29" d="M40.293 32.803c.888.526 1.752.737 2.589.635.837-.103 1.637-.524 2.398-1.263.76-.738 1.065-1.732.914-2.98-.151-1.25-.658-2.13-1.519-2.646-.861-.516-1.748-.718-2.662-.606-.914.111-1.726.534-2.436 1.266-.71.733-.99 1.718-.84 2.954.15 1.236.668 2.115 1.556 2.64m-6.007-9.718c1.892-2.247 4.208-3.538 6.95-3.872 2.742-.335 5.286.357 7.632 2.074 2.347 1.718 3.706 4.105 4.076 7.161.256 2.116-.063 4.061-.955 5.838-.893 1.776-2.072 3.148-3.54 4.114-1.467.968-3.038 1.554-4.714 1.76-1.676.203-3.351-.013-5.025-.65-1.675-.635-3.149-1.695-4.425-3.183-1.275-1.486-2.035-3.247-2.282-5.285-.37-3.058.39-5.71 2.283-7.957"/>
        <path fill="#C93728" d="M39.896 19.46s9.849.084 11.057 8.405c0 0 1.972 8.896-7.606 12.253 0 0 5.434-.006 8.448-5.463 0 0 3.001-5.154-.3-10.564 0 0-3.398-6.197-11.599-4.63"/>
        <path fill="#EDBD4F" d="M35.49 19.956c-.304 2.219-1.486 5.624-5.865 11.592-.42.572-.53 1.283.105 1.595 3.538 1.732 6.902 2.111 8.443 3.247.898.64 1.41 1.239 1.535 1.793.126.554-.16 1.305-.855 2.254-.696.948-1.32 1.485-1.873 1.61-.552.127-1.321-.177-2.31-.912l-7.038-5.118c-.683-.497-1.615.121-1.428.947l.904 3.98c.119.522.189.906.21 1.153.022.246-.017.552-.116.917-.17.657-.948 1.143-2.334 1.46-1.516.347-2.498.137-2.946-.63-.208-.317-.4-.856-.572-1.617l-4.117-18.128a9.806 9.806 0 0 1-.206-1.136c-.024-.256.013-.568.112-.934.17-.656.948-1.144 2.335-1.46 0 0 2.397-.423 4.396 6.117.247.808 1.295.97 1.7.228a556.908 556.908 0 0 0 4.125-7.688c.556-1.063 1.115-1.661 1.679-1.79.563-.128 1.363.084 2.4.635 0 0 1.846.938 1.716 1.885"/>
        <path fill="#EBAF34" d="M33.246 17.81s2.681 1.047-1.078 7.273l-4.151 6.412s-1.244 1.24 1.52 2.555c1.752.835 6.79 2.519 8.26 3.671 1.472 1.152 1.691 1.704 1.691 1.704s.802-1.556-.844-2.669c-1.645-1.113-2.496-1.387-4.141-1.807-1.645-.42-4.045-1.503-4.045-1.503s-1.096-.328-1.155-1.11c0 0-.203-.198 1.018-1.727 1.221-1.528 3.606-5.685 4.2-7.135 0 0 1.107-2.88.969-3.518-.138-.637-.415-1.34-2.244-2.145"/>
        <path fill="#D33F29" d="M28.868 45.443c.087.982-.566 1.922-1.381 2.304-.259.121-.78.3-1.62.429-.842.128-2.732.169-3.536.583-1.849.953-1.413 2.256-.836 2.658.994.693 1.975.06 3.443-.655a13.264 13.264 0 0 1 4.56-1.386c.76-.101 1.557.062 2.396.494.84.432 1.6 1.166 2.28 2.202.68 1.036 1.067 2.045 1.157 3.028.091.985-.094 1.886-.553 2.705-.865 1.458-2.256 2.82-4.172 4.089-1.917 1.267-4.126 1.927-6.626 1.98-.534.01-.971-.243-1.312-.761-.34-.518-.48-1.554-.42-3.11-.004-.484.237-.886.724-1.208.486-.322 1.17-.22 2.324-.283 1.154-.063 3.563-.143 4.239-.59 1.21-.801.505-2.18-.01-2.39-.418-.17-1.098-.217-2.545.484-1.37.648-2.919 1-4.647 1.058-.812.022-1.658-.225-2.54-.743-.88-.518-1.668-1.304-2.362-2.36-2.068-3.149-.948-6.149 3.361-9 1.41-.932 3.083-1.551 5.017-1.86 0 0 2.824-.32 3.06 2.332"/>
        <path fill="#C93728" d="M25.17 43.31s2.222 0 2.577 1.58c.356 1.581-1.258 2.63-3.084 2.61-2.54-.03-4.239 1.275-4.58 2.687-.34 1.413 1.379 3.12 4.104 1.823 2.778-1.322 6.825-2.758 8.854.176 2.391 3.456.998 5.486-1.487 7.734-2.485 2.249-8.903 5.474-9.242 2.051 0 0 .132 1.97 1.668 1.903 1.537-.067 4.211-.024 8.01-2.979 3.801-2.955 4.02-5.678 2.563-8.193-1.455-2.515-3.306-3.562-5.326-3.281-2.02.28-3.78 1.037-4.766 1.557-.986.52-2.524 1.334-3.405-.046 0 0-.759-1.304 1.275-2.173 0 0 .865-.403 3.84-.62 2.976-.218 3.812-3.85.908-4.912 0 0-.898-.285-1.91.082"/>
        <path fill="#DB4527" d="M2.564 16.911s3.425.306 4.04-2.951c0 0-.677 3.345 2.996 3.323 0 0-3.495-.297-3.71 2.694 0 0 .561-3.106-3.326-3.066"/>
        <path fill="#D33F29" d="M104.867 44.489l-1.983-1.56a.77.77 0 0 1-.13-1.078l1.553-1.99a.771.771 0 0 0-.13-1.08l-1.622-1.273a.764.764 0 0 0-1.075.131l-1.553 1.99a.764.764 0 0 1-1.076.131l-1.982-1.559a.765.765 0 0 0-1.076.132l-1.27 1.626a.77.77 0 0 0 .131 1.079l1.984 1.558a.77.77 0 0 1 .13 1.08l-1.553 1.99a.77.77 0 0 0 .13 1.079l1.62 1.274a.765.765 0 0 0 1.077-.132l1.553-1.99a.764.764 0 0 1 1.075-.13l1.984 1.558a.764.764 0 0 0 1.075-.131l1.269-1.626a.77.77 0 0 0-.13-1.08"/>
        <path stroke="#717272" stroke-linecap="round" stroke-width=".5" d="M78.496 14.923a3.078 3.078 0 0 0-.568.572"/>
        <path stroke="#717272" stroke-dasharray="1.614816093444824,1.614816093444824" stroke-linecap="round" stroke-width=".5" d="M77.248 16.948c-.143.593-.15 1.195-.017 1.695.304 1.152 1.148 1.89 1.966 2.586 1.797 1.53 3.606 3.066 5.727 4.126.494.247 1.03.47 1.652.366.622-.104 1.348-.637 1.562-1.33.264-.857-.329-1.444-.91-1.794-3.2-1.919-7.563-2.027-11.828-.292-.682.277-1.417.647-1.888 1.323-.346.496-.491 1.088-.506 1.62-.048 1.7 1.077 2.773 2.184 3.626 2.26 1.742 4.776 3.24 7.757 3.665"/>
        <path stroke="#717272" stroke-linecap="round" stroke-width=".5" d="M83.74 32.522c.3-.112.568-.345.456-.568"/>
        <path fill="#EDBD4F" d="M91.066 49.904c.014.678-.478 1.292-1.055 1.515-.183.072-.548.17-1.13.219-.584.048-1.882-.012-2.453.234-1.312.567-1.074 1.48-.696 1.784.648.521 1.35.133 2.39-.288.996-.433 1.92-.578 3.053-.636a3.089 3.089 0 0 1 1.737.427 4.055 4.055 0 0 1 1.484 1.54c.418.742.636 1.453.652 2.132a3.12 3.12 0 0 1-.505 1.828c-.661.96-1.679 1.83-3.052 2.608-1.373.78-2.918 1.129-4.635 1.048-.367-.018-.656-.212-.865-.583-.21-.371-.257-1.088-.143-2.153.02-.332.204-.597.552-.794.35-.198.813-.096 1.607-.085.795.01 2.45.068 2.935-.207.867-.492.448-1.47.105-1.638-.28-.137-.743-.201-1.768.211-.97.381-2.048.55-3.237.508-.557-.022-1.126-.231-1.706-.628-.58-.396-1.084-.972-1.511-1.73-1.272-2.256-.364-4.26 2.724-6.013 1.01-.573 2.187-.92 3.527-1.041 0 0 1.951-.087 1.99 1.742"/>
        <path fill="#EBAF34" d="M88.098 48.276s1.83-.043 2.024 1.249c.194 1.291-1.55 1.429-3.197 1.442-1.646.013-2.696 1.55-2.116 2.626.58 1.075 1.765 1.269 2.943.712 1.177-.557 4.726-2.335 6.357 1.23 1.63 3.565-3.925 5.634-3.925 5.634s-3.9 1.356-4.354-.585c0 0-.47 2.502 2.921 1.643 0 0 4.075-.89 5.792-3.569 0 0 1.51-2.127-.825-4.899 0 0-1.444-2.082-5.284-.52l-1.09.47s-.846.43-1.417.048c-.57-.382-.703-.867-.179-1.482.525-.615 2-.594 2-.594s1.398-.036 2.136-.219c.738-.182 1.41-1.015 1.104-2.106-.306-1.09-1.847-1.438-2.89-1.08"/>
    </g>
</svg>
